<svg id="Layer_1" data-name="Layer 1" xmlns="http://www.w3.org/2000/svg" viewBox="0 0 466 466.2"><defs><style>.cls-1{fill:#5bad1e;}.cls-2{fill:#fff;}.cls-3{fill:none;stroke:#5bad1e;stroke-miterlimit:10;stroke-width:30px;}</style></defs><title>failed</title><path id="_Path_" data-name=" Path " class="cls-1" d="M466,233v-.7c0-1.6,0-3.2-.1-4.7,0-.9-.1-1.8-.1-2.8s-.1-1.8-.1-2.7c-.1-1.1-.1-2.2-.2-3.3,0-.7-.1-1.4-.1-2.1l-.3-3.6c0-.5-.1-1.1-.1-1.6-.1-1.3-.3-2.6-.4-4,0-.3-.1-.7-.1-1C451.3,90.3,352.7,0,233,0S14.7,90.3,1.5,206.6c0,.3-.1.7-.1,1-.1,1.3-.3,2.6-.4,4a8.6,8.6,0,0,0-.1,1.6l-.3,3.6c0,.7-.1,1.4-.1,2.1-.1,1.1-.1,2.2-.2,3.3,0,.9-.1,1.8-.1,2.7s-.1,1.8-.1,2.8c0,1.6-.1,3.2-.1,4.7V234c0,1.6,0,3.2.1,4.7,0,.9.1,1.8.1,2.8s.1,1.8.1,2.7c.1,1.1.1,2.2.2,3.3,0,.7.1,1.4.1,2.1l.3,3.6c0,.5.1,1.1.1,1.6.1,1.3.3,2.6.4,4,0,.3.1.7.1,1C14.7,375.9,113.3,466.2,233,466.2s218.3-90.3,231.5-206.5c0-.3.1-.7.1-1,.1-1.3.3-2.6.4-4a8.6,8.6,0,0,0,.1-1.6l.3-3.6c0-.7.1-1.4.1-2.1.1-1.1.1-2.2.2-3.3,0-.9.1-1.8.1-2.7s.1-1.8.1-2.8c0-1.6.1-3.2.1-4.7V233Z" transform="translate(0)"/><circle id="_Path_2" data-name=" Path 2" class="cls-2" cx="233" cy="233.1" r="159.5"/><line id="_Path_3" data-name=" Path 3" class="cls-3" x1="158.9" y1="159" x2="307.1" y2="307.2"/><line id="_Path_4" data-name=" Path 4" class="cls-3" x1="158.9" y1="307.2" x2="307.1" y2="159"/></svg>