<svg id="Layer_1" data-name="Layer 1" xmlns="http://www.w3.org/2000/svg" viewBox="0 0 507.2 507.2"><defs><style>.cls-1{fill:#5bad1e;}.cls-2{fill:#47920f;}.cls-3{fill:#fff;}</style></defs><title>success</title><circle class="cls-1" cx="253.6" cy="253.6" r="253.6"/><path class="cls-2" d="M188.8,368,319.2,498.4c108-28.8,188-127.2,188-244.8v-7.2L404.8,152Z"/><path class="cls-3" d="M260,310.4c11.2,11.2,11.2,30.4,0,41.6l-23.2,23.2c-11.2,11.2-30.4,11.2-41.6,0L93.6,272.8c-11.2-11.2-11.2-30.4,0-41.6L116.8,208c11.2-11.2,30.4-11.2,41.6,0Z"/><path class="cls-3" d="M348.8,133.6c11.2-11.2,30.4-11.2,41.6,0l23.2,23.2c11.2,11.2,11.2,30.4,0,41.6l-176,175.2c-11.2,11.2-30.4,11.2-41.6,0l-23.2-23.2c-11.2-11.2-11.2-30.4,0-41.6Z"/></svg>